# xmcd
#
# Track frame offsets: 
#        150
#        18872
#        35442
#        64212
#        76945
#        93830
#        112722
#        138470
#        158610
#        177082
#        197205
#        205312
#        216772
#        232447
#
# Disc length: 3492 seconds
#
# Revision: 0
# Processed by: cddbd v1.5.2PL0 Copyright (c) Steve Scherf et al.
# Submitted via: ExactAudioCopy v0.99pb5
#
DISCID=b80da20e
DTITLE=Diunna Greenleaf - Trying To Hold On
DYEAR=2011
DGENRE=Blues
TTITLE0=Be For Me
TTITLE1=Sunny Day Friends
TTITLE2=Growing Up And Growing Old
TTITLE3=Beautiful Hat
TTITLE4=I Can't Wait
TTITLE5=Taking Chances
TTITLE6=Tryin' To Hold On
TTITLE7=You Don't Feel That Way About Me
TTITLE8=I'm A Little Mixed Up ( A tribute to Koko Taylor)
TTITLE9=Double Dealing
TTITLE10=He Is Everything To Me - Diunna's Grandmother, Sylvie Travis
TTITLE11=He Is Everything To Me - Diunna
TTITLE12=I Got A Notion To Leave
TTITLE13='Cause I'm A Soldier
EXTD=
EXTT0=
EXTT1=
EXTT2=
EXTT3=
EXTT4=
EXTT5=
EXTT6=
EXTT7=
EXTT8=
EXTT9=
EXTT10=
EXTT11=
EXTT12=
EXTT13=
PLAYORDER=
